<?xml version="1.0" standalone="no"?>
<!DOCTYPE svg PUBLIC "-//W3C//DTD SVG 20010904//EN"
 "http://www.w3.org/TR/2001/REC-SVG-20010904/DTD/svg10.dtd">
<svg version="1.0" xmlns="http://www.w3.org/2000/svg"
 width="567.000000pt" height="660.000000pt" viewBox="0 0 567.000000 660.000000"
 preserveAspectRatio="xMidYMid meet">
<metadata>
Created by potrace 1.16, written by Peter Selinger 2001-2019
</metadata>
<g transform="translate(0.000000,660.000000) scale(0.100000,-0.100000)"
fill="#000000" stroke="none">
<path d="M2745 6288 c-16 -16 -88 -87 -160 -156 -71 -70 -155 -160 -185 -201
-30 -41 -89 -106 -130 -145 -41 -39 -137 -136 -214 -215 -77 -79 -151 -147
-163 -152 -13 -5 -23 -17 -23 -28 0 -10 -22 -39 -48 -63 -26 -23 -74 -76 -105
-116 -32 -40 -69 -80 -83 -89 -14 -9 -32 -29 -40 -45 -14 -27 -14 -31 8 -53
24 -25 48 -19 48 14 1 9 19 28 40 43 24 17 40 36 40 48 0 13 7 20 18 20 10 0
25 11 32 25 7 14 21 25 31 25 23 0 79 64 127 147 37 62 44 70 66 66 27 -6 24
-11 66 100 20 52 83 137 94 126 3 -2 -13 -39 -34 -82 -21 -42 -35 -79 -31 -82
4 -2 24 7 44 21 31 21 36 29 31 50 -4 17 1 33 19 57 45 58 62 73 78 69 10 -2
47 27 93 72 42 42 81 76 86 76 20 0 9 18 -14 24 -13 3 -27 13 -30 22 -7 18 19
54 39 54 7 0 20 9 30 20 20 22 51 27 57 8 5 -13 58 18 58 33 0 5 18 29 40 53
22 24 40 49 40 55 0 43 90 129 121 115 8 -3 43 -39 79 -79 37 -42 76 -76 90
-79 34 -7 133 -83 152 -116 9 -15 37 -42 64 -60 90 -60 150 -130 113 -130 -16
0 -9 -12 55 -83 44 -49 69 -68 93 -73 35 -7 133 -86 133 -108 0 -20 34 -46 59
-46 22 0 22 2 -12 39 -20 22 -43 51 -52 65 -9 14 -31 30 -49 36 -38 12 -116
90 -141 140 -10 19 -54 68 -98 110 -157 148 -443 436 -466 468 -12 17 -25 32
-29 31 -4 0 -20 -14 -37 -31z"/>
<path d="M1506 5001 c-30 -41 -45 -56 -286 -287 -194 -185 -241 -229 -335
-314 -44 -39 -88 -79 -97 -87 -10 -9 -18 -26 -18 -38 0 -23 -58 -95 -77 -95
-17 0 -253 -259 -253 -278 0 -21 165 -202 184 -202 7 0 34 -27 59 -60 26 -33
51 -60 56 -60 5 0 23 -29 40 -65 18 -37 38 -65 46 -65 9 0 22 -15 31 -32 9
-18 48 -58 87 -88 40 -30 115 -98 168 -150 53 -52 156 -154 230 -226 74 -72
170 -169 214 -215 44 -46 88 -91 98 -99 29 -23 135 -128 197 -194 233 -250
410 -430 438 -446 18 -11 44 -20 57 -20 26 0 34 -9 50 -53 11 -30 370 -417
387 -417 15 0 188 171 188 185 0 7 27 34 59 61 33 27 65 58 71 69 7 11 34 37
62 58 27 22 57 52 67 68 9 16 103 117 209 224 105 108 192 201 192 208 0 7 14
18 31 26 34 15 394 360 518 496 10 11 28 29 39 40 11 11 137 138 279 283 142
145 288 288 325 319 37 31 74 70 82 87 8 17 29 40 46 51 16 11 51 44 76 73 49
57 45 71 -16 49 -47 -16 -101 -60 -230 -187 -58 -58 -151 -145 -206 -195 -54
-49 -101 -94 -103 -100 -4 -11 -173 -179 -206 -206 -11 -9 -31 -30 -45 -48
-14 -17 -32 -31 -41 -31 -8 0 -47 -35 -84 -77 -38 -43 -116 -126 -174 -185
-57 -59 -111 -118 -120 -131 -24 -36 -214 -222 -234 -230 -9 -3 -29 -26 -45
-49 -47 -75 -95 -128 -114 -128 -22 0 -118 -96 -118 -118 0 -27 -47 -77 -96
-102 -57 -30 -194 -162 -194 -188 0 -25 -36 -61 -78 -79 -20 -8 -61 -37 -91
-64 -42 -37 -58 -46 -68 -38 -7 6 -13 17 -13 23 0 17 -110 128 -153 155 -20
12 -46 34 -57 49 -12 15 -33 34 -48 43 -15 8 -33 27 -39 41 -13 25 -88 98
-136 131 -15 9 -24 23 -22 30 6 16 -2 27 -50 61 -45 32 -94 85 -95 102 0 6
-11 20 -25 32 -14 12 -25 26 -25 31 0 5 -43 47 -95 95 -52 47 -134 127 -182
178 -49 51 -95 95 -103 96 -20 5 -60 43 -60 57 0 6 -21 27 -46 45 -25 18 -52
47 -59 64 -8 18 -38 54 -67 80 -29 26 -64 59 -78 71 -14 13 -38 30 -53 38 -14
8 -65 55 -112 105 -47 50 -94 94 -105 97 -10 3 -22 16 -26 28 -3 12 -19 36
-34 52 -15 17 -35 45 -45 64 -13 26 -19 31 -26 20 -6 -11 -21 0 -64 45 -30 33
-55 66 -55 73 0 8 -8 16 -17 20 -26 9 -63 44 -63 60 0 8 -8 17 -17 20 -10 4
-65 50 -123 102 -58 53 -114 101 -125 107 -32 18 -28 38 15 69 22 17 56 53 75
81 18 28 40 56 49 63 21 17 58 90 51 101 -7 12 25 50 42 50 19 0 16 -13 -7
-33 -19 -16 -27 -37 -14 -37 9 0 68 43 106 76 20 17 52 58 73 90 57 90 108
154 122 154 7 0 13 -4 13 -10 0 -21 21 -8 44 28 13 20 62 73 107 117 175 169
309 311 309 328 0 14 5 16 25 11 15 -4 25 -2 25 5 0 6 -7 11 -16 11 -16 0 -16
11 1 53 14 34 -29 18 -59 -22z"/>
<path d="M2027 4607 c-9 -7 -24 -28 -35 -47 -10 -19 -32 -41 -48 -49 -116 -56
-145 -75 -178 -116 -81 -99 -77 -131 28 -209 56 -43 132 -79 146 -71 17 10 11
27 -26 88 -28 45 -34 64 -29 85 6 26 42 72 55 72 7 0 18 -50 41 -182 12 -73
20 -109 51 -235 l22 -92 -33 -46 c-18 -25 -37 -62 -43 -81 -8 -31 -6 -40 17
-70 14 -19 32 -34 39 -34 18 0 72 -28 86 -45 26 -32 150 -26 150 6 0 7 -20 55
-45 106 -32 66 -44 101 -39 116 11 35 44 77 60 77 8 0 42 -18 74 -40 32 -22
63 -40 67 -40 4 0 42 -25 83 -55 41 -30 82 -55 92 -55 9 0 27 -11 40 -24 13
-14 44 -36 70 -49 26 -14 60 -35 75 -47 17 -13 35 -19 49 -16 15 4 27 0 36
-12 17 -22 112 -102 122 -102 4 0 21 -9 37 -21 16 -11 39 -21 51 -22 13 0 29
-9 36 -19 7 -10 22 -18 33 -18 11 0 31 -7 45 -16 23 -16 26 -16 38 2 18 24 15
28 -33 44 -23 7 -48 21 -57 32 -10 10 -23 18 -31 18 -7 0 -13 4 -13 9 0 5 -17
17 -37 26 -21 10 -41 23 -45 30 -4 7 -33 27 -64 46 -31 19 -83 57 -116 84 -33
28 -71 57 -83 65 -43 29 -76 55 -123 98 -26 24 -87 71 -137 104 -49 33 -92 62
-93 63 -11 10 49 68 92 91 72 38 90 48 96 55 9 10 121 69 131 69 6 0 70 29
142 64 73 35 148 71 169 79 38 16 55 46 40 73 -5 9 -40 27 -77 39 l-69 23 -42
-20 c-24 -11 -63 -37 -86 -58 -56 -48 -167 -120 -187 -120 -9 0 -36 -16 -60
-35 -24 -19 -48 -35 -53 -35 -5 0 -35 -15 -66 -33 -31 -18 -82 -43 -112 -56
-66 -29 -90 -54 -90 -91 0 -27 -26 -60 -48 -60 -16 0 -20 21 -37 195 -25 266
-18 321 48 364 55 36 48 57 -28 81 -22 7 -50 16 -62 21 -13 5 -27 3 -36 -4z"/>
<path d="M797 987 c-3 -8 -4 -155 -4 -328 l2 -314 38 -3 37 -3 0 113 c0 94 3
117 19 137 l18 24 16 -24 c8 -13 40 -73 69 -134 53 -108 55 -110 89 -110 21 0
33 5 32 12 -2 7 -37 83 -78 169 -41 86 -75 163 -75 171 0 8 11 34 25 59 14 24
36 64 50 89 90 162 89 158 43 153 -34 -3 -39 -10 -128 -173 -56 -104 -63 -115
-72 -115 -5 0 -8 65 -8 145 l0 145 -34 0 c-19 0 -36 -6 -39 -13z"/>
<path d="M1185 987 c-3 -7 -4 -154 -3 -327 l3 -315 33 -3 32 -3 0 330 0 331
-30 0 c-17 0 -33 -6 -35 -13z"/>
<path d="M1337 994 c-4 -4 -7 -153 -7 -331 l0 -323 130 0 130 0 0 30 0 29 -87
3 -88 3 -5 295 -5 295 -30 3 c-17 2 -34 0 -38 -4z"/>
<path d="M1650 670 l0 -330 35 0 35 0 0 330 0 330 -35 0 -35 0 0 -330z"/>
<path d="M1901 963 c-5 -21 -19 -85 -30 -143 -26 -141 -58 -310 -75 -395 -7
-38 -11 -73 -9 -77 2 -5 17 -8 32 -8 26 0 29 4 42 63 l14 62 74 3 c44 2 78 -1
85 -8 6 -6 16 -34 21 -63 9 -49 12 -52 43 -55 29 -3 32 -1 32 25 0 16 -9 71
-19 123 -11 52 -29 147 -41 210 -41 214 -51 265 -56 283 -4 13 -16 17 -54 17
-48 0 -49 -1 -59 -37z m69 -120 c0 -14 4 -42 9 -62 5 -20 15 -63 21 -96 6 -33
16 -76 21 -95 7 -28 6 -37 -8 -47 -25 -19 -112 -17 -119 2 -6 14 25 206 48
298 10 41 28 41 28 0z"/>
<path d="M2197 986 c-8 -21 -9 -609 -1 -630 4 -10 17 -16 35 -16 l29 0 0 234
c0 147 4 237 10 241 6 3 12 0 14 -7 14 -47 71 -232 86 -278 10 -30 25 -80 34
-110 23 -76 28 -82 67 -78 l34 3 0 325 0 325 -30 0 -30 0 -5 -215 c-3 -118 -8
-210 -12 -204 -8 12 -19 43 -88 262 l-51 162 -43 0 c-29 0 -46 -5 -49 -14z"/>
<path d="M2705 980 c-10 -32 12 -49 68 -52 l52 -3 3 -293 2 -293 33 3 32 3 5
290 5 290 55 5 c53 5 55 6 55 35 l0 30 -152 3 c-146 2 -152 2 -158 -18z"/>
<path d="M3146 992 c-5 -9 -16 -60 -56 -272 -12 -63 -30 -158 -40 -210 -36
-185 -36 -172 1 -168 31 3 33 6 45 56 6 30 16 58 21 63 6 6 43 9 84 7 81 -3
81 -3 94 -90 6 -35 8 -38 40 -38 39 0 42 9 26 83 -5 23 -15 71 -21 107 -6 36
-15 83 -20 105 -5 22 -18 92 -30 155 -12 63 -26 136 -32 163 l-10 47 -48 0
c-27 0 -51 -4 -54 -8z m64 -161 c0 -15 4 -41 9 -57 5 -16 17 -73 26 -127 21
-115 20 -117 -60 -114 -46 2 -50 4 -53 29 -2 15 6 71 17 125 12 53 21 105 21
114 0 29 19 71 30 64 5 -3 10 -19 10 -34z"/>
<path d="M3412 968 c3 -32 4 -33 58 -38 l55 -5 3 -293 2 -293 38 3 37 3 3 293
2 292 48 0 c58 0 75 10 70 41 l-3 24 -158 3 -158 3 3 -33z"/>
<path d="M3754 986 c-15 -38 0 -51 58 -54 l58 -3 2 -292 3 -292 35 0 35 0 3
292 2 292 58 3 c56 3 57 4 57 33 l0 30 -153 3 c-127 2 -153 0 -158 -12z"/>
<path d="M4167 970 c-18 -16 -39 -47 -45 -68 -16 -53 -16 -411 0 -465 24 -79
110 -128 180 -103 101 36 110 56 116 267 2 92 1 201 -3 243 -6 71 -10 80 -44
117 -37 38 -40 39 -104 39 -59 0 -70 -3 -100 -30z m144 -49 c23 -19 24 -24 29
-218 5 -209 0 -270 -27 -290 -26 -20 -74 -15 -100 9 -23 21 -23 24 -23 249 l0
228 26 20 c33 26 65 27 95 2z"/>
<path d="M4532 972 c-17 -16 -34 -42 -39 -58 -4 -16 -8 -133 -8 -260 l0 -231
28 -36 c53 -70 165 -77 227 -15 37 36 40 54 47 263 7 219 -3 283 -52 332 -31
31 -37 33 -103 33 -63 0 -73 -3 -100 -28z m152 -58 l26 -27 0 -217 c0 -205 -1
-219 -21 -244 -16 -20 -29 -26 -60 -26 -34 0 -42 5 -59 33 -18 29 -20 50 -20
229 0 112 4 208 10 224 23 58 80 71 124 28z"/>
</g>
</svg>
